# xmcd CD database file
#
# Track frame offsets:
#	150
#	25120
#	47875
#	71520
#	98515
#	111235
#	130485
#	143125
#	158262
#	181642
#	198432
#	221877
#	237300
#	255715
#
# Disc length: 4366 seconds
#
# Revision: 1
# Processed by: cddbd v1.5.1PL0 Copyright (c) Steve Scherf et al.
# Submitted via: CDex 1.51
#
DISCID=c0110c0e
DTITLE=Elliott Sharp - Monster Curve - Carbon
DYEAR=1992
DGENRE=Experimental
TTITLE0=Geometry
TTITLE1=Iso
TTITLE2=Helicopters
TTITLE3=Inverse Proportions
TTITLE4=Cia Pope
TTITLE5=Intervention
TTITLE6=Last Laugh
TTITLE7=Vicious Cycle
TTITLE8=Singularity
TTITLE9=Squig
TTITLE10=Turbulence
TTITLE11=Dusts
TTITLE12=Lacunar
TTITLE13=Not-Yet-Time
EXTD=YEAR: 1992
EXTT0=
EXTT1=
EXTT2=
EXTT3=
EXTT4=
EXTT5=
EXTT6=
EXTT7=
EXTT8=
EXTT9=
EXTT10=
EXTT11=
EXTT12=
EXTT13=
PLAYORDER=
